<?xml version="1.0" encoding="utf-8"?>
<!-- Generator: Adobe Illustrator 23.1.0, SVG Export Plug-In . SVG Version: 6.00 Build 0)  -->
<svg version="1.1" id="Layer_1" xmlns="http://www.w3.org/2000/svg" xmlns:xlink="http://www.w3.org/1999/xlink" x="0px" y="0px"
	 viewBox="0 0 400 243" style="enable-background:new 0 0 400 243;" xml:space="preserve">
<style type="text/css">
	.st0{enable-background:new    ;}
	.st1{fill:#04A24A;}
	.st2{opacity:0.99;fill:#27ACE2;enable-background:new    ;}
	.st3{fill:#27ACE2;}
</style>
<title>saviant-logo-svg</title>
<g>
	<g class="st0">
		<path class="st1" d="M4.9,201H1.1v-4.2H5L4.9,201L4.9,201z M4.7,232H1.3v-25.4h3.4V232z"/>
		<path class="st1" d="M14.9,217.4V232h-3.4v-25.4h3.4v4.4c1.8-3.3,4.4-5,7.8-5c2.7,0,4.8,0.9,6.4,2.8c1.6,1.9,2.3,4.3,2.3,7.4V232
			H28v-14.8c0-2.4-0.5-4.3-1.6-5.6c-1.1-1.4-2.6-2-4.6-2s-3.6,0.7-4.9,2.2C15.5,213.2,14.9,215.1,14.9,217.4z"/>
		<path class="st1" d="M42.2,209.9v14.8c0,2.8,1.3,4.2,3.8,4.2c1.1,0,2.2-0.3,3.3-0.9v3.2c-1.2,0.7-2.6,1.1-4.1,1.1
			c-2,0-3.5-0.6-4.7-1.7c-1.2-1.2-1.7-3-1.7-5.4v-15.3h-3.2v-3.3h3.2v-7.7h3.4v7.7h7.2v3.3L42.2,209.9L42.2,209.9z"/>
		<path class="st1" d="M55.7,220.7c0.2,2.7,1.1,4.8,2.6,6.3s3.3,2.3,5.4,2.3c2.7,0,5.1-1.2,7.2-3.6l2.1,2.1
			c-2.6,3.2-5.7,4.8-9.4,4.8c-3.2,0-5.9-1.2-8.1-3.7c-2.2-2.5-3.3-5.7-3.3-9.6c0-3.7,1-6.8,3.1-9.4c2.1-2.6,4.7-3.9,7.8-3.9
			c3.3,0,5.8,1.3,7.7,3.8c1.9,2.6,2.9,5.8,2.9,9.6c0,0.5,0,0.9,0,1.2L55.7,220.7L55.7,220.7z M55.7,217.9h14.6
			c-0.2-2.5-0.9-4.6-2.2-6.2c-1.3-1.6-3-2.5-5.1-2.5c-2,0-3.6,0.8-5,2.5C56.7,213.3,55.9,215.4,55.7,217.9z"/>
		<path class="st1" d="M82.4,232H79v-35.9h3.4V232z"/>
		<path class="st1" d="M92.9,232h-3.4v-35.9h3.4V232z"/>
		<path class="st1" d="M103.8,201h-3.9v-4.2h3.9V201z M103.5,232h-3.4v-25.4h3.4V232z"/>
		<path class="st1" d="M132,227.6c0,4-1,7.1-3.1,9.2c-2.1,2.1-4.9,3.2-8.5,3.2c-3.8,0-7.3-1.2-10.3-3.5l1.5-3
			c2.7,2.2,5.6,3.2,8.7,3.2c2.6,0,4.6-0.8,6-2.3c1.5-1.6,2.2-3.8,2.2-6.7v-3c-2.4,3.6-5.4,5.4-8.9,5.4c-2.9,0-5.4-1.1-7.5-3.3
			s-3.2-5.1-3.2-8.7s1.1-6.5,3.2-8.7s4.6-3.3,7.5-3.3c3.6,0,6.6,1.7,8.9,5.1v-4.6h3.4v21H132z M128.7,218c0-2.6-0.8-4.6-2.5-6.2
			c-1.7-1.6-3.6-2.4-5.9-2.4c-2.2,0-4.1,0.8-5.6,2.4c-1.5,1.6-2.3,3.7-2.3,6.2c0,2.6,0.8,4.6,2.3,6.3c1.5,1.6,3.4,2.4,5.6,2.4
			s4.2-0.8,5.8-2.4C127.9,222.6,128.7,220.5,128.7,218z"/>
		<path class="st1" d="M140.6,220.7c0.2,2.7,1.1,4.8,2.6,6.3s3.3,2.3,5.4,2.3c2.7,0,5.1-1.2,7.2-3.6l2.1,2.1
			c-2.6,3.2-5.7,4.8-9.4,4.8c-3.2,0-5.9-1.2-8.1-3.7c-2.2-2.5-3.3-5.7-3.3-9.6c0-3.7,1-6.8,3.1-9.4c2.1-2.6,4.7-3.9,7.8-3.9
			c3.3,0,5.8,1.3,7.7,3.8c1.9,2.6,2.9,5.8,2.9,9.6c0,0.5,0,0.9,0,1.2L140.6,220.7L140.6,220.7z M140.6,217.9h14.6
			c-0.2-2.5-0.9-4.6-2.2-6.2c-1.3-1.6-3-2.5-5.1-2.5c-2,0-3.6,0.8-5,2.5C141.6,213.3,140.8,215.4,140.6,217.9z"/>
		<path class="st1" d="M166.9,217.4V232h-3.4v-25.4h3.4v4.4c1.8-3.3,4.4-5,7.8-5c2.7,0,4.8,0.9,6.4,2.8c1.6,1.9,2.3,4.3,2.3,7.4V232
			H180v-14.8c0-2.4-0.5-4.3-1.6-5.6c-1.1-1.4-2.6-2-4.6-2s-3.6,0.7-4.9,2.2C167.6,213.2,166.9,215.1,166.9,217.4z"/>
		<path class="st1" d="M194.2,209.9v14.8c0,2.8,1.3,4.2,3.8,4.2c1.1,0,2.2-0.3,3.3-0.9v3.2c-1.2,0.7-2.6,1.1-4.1,1.1
			c-2,0-3.5-0.6-4.7-1.7c-1.2-1.2-1.7-3-1.7-5.4v-15.3h-3.2v-3.3h3.2v-7.7h3.4v7.7h7.2v3.3L194.2,209.9L194.2,209.9z"/>
		<path class="st1" d="M234.2,224.9c0,2.4-0.8,4.2-2.3,5.6c-1.5,1.4-3.5,2-5.8,2c-1.6,0-3.3-0.3-5-1s-3.2-1.6-4.4-2.7l1.7-2.7
			c2.6,2.2,5.2,3.2,7.9,3.2c1.4,0,2.5-0.4,3.4-1.1c0.9-0.7,1.3-1.7,1.3-2.9v-0.1c0-1.1-0.5-2-1.4-2.7c-1-0.6-2.4-1.2-4.2-1.8
			c-1.1-0.4-2.1-0.7-2.7-1c-0.7-0.3-1.4-0.7-2.3-1.3c-0.9-0.5-1.5-1.2-1.9-2s-0.6-1.8-0.6-2.9v-0.1c0-2.2,0.7-3.9,2.2-5.3
			c1.5-1.3,3.3-2,5.6-2c2.9,0,5.7,0.9,8.2,2.8l-1.5,2.9c-2.3-1.6-4.5-2.5-6.7-2.5c-1.3,0-2.4,0.3-3.2,1s-1.2,1.6-1.2,2.7v0.1
			c0,0.5,0.1,0.9,0.4,1.3c0.2,0.4,0.5,0.7,0.8,1s0.8,0.5,1.4,0.8c0.6,0.3,1.1,0.5,1.5,0.6s1,0.3,1.8,0.6c0.9,0.3,1.6,0.6,2.1,0.8
			c0.6,0.2,1.2,0.6,1.9,1s1.3,0.9,1.7,1.3c0.4,0.5,0.8,1.1,1.1,1.8C234,223.1,234.2,223.9,234.2,224.9L234.2,224.9z"/>
		<path class="st1" d="M258.3,209.9c2.3,2.6,3.4,5.7,3.4,9.4s-1.1,6.8-3.4,9.4c-2.3,2.6-5.1,3.9-8.5,3.9s-6.2-1.3-8.4-3.9
			c-2.2-2.6-3.4-5.7-3.4-9.4s1.1-6.8,3.4-9.4c2.3-2.6,5.1-3.9,8.5-3.9C253.3,206,256.1,207.3,258.3,209.9z M258.3,219.4
			c0-2.8-0.8-5.1-2.4-7.1c-1.6-1.9-3.6-2.9-6-2.9s-4.4,1-6,2.9s-2.3,4.2-2.3,7s0.8,5.1,2.4,7.1c1.6,1.9,3.6,2.9,6,2.9s4.4-1,6-2.9
			C257.5,224.4,258.3,222.1,258.3,219.4z"/>
		<path class="st1" d="M270.5,232h-3.4v-35.9h3.4V232z"/>
		<path class="st1" d="M293.5,221.1v-14.6h3.3V232h-3.3v-4.4c-1.8,3.3-4.4,5-7.8,5c-2.7,0-4.8-0.9-6.4-2.8c-1.6-1.9-2.3-4.3-2.3-7.4
			v-15.8h3.4v14.8c0,2.4,0.5,4.3,1.6,5.6c1.1,1.4,2.6,2,4.6,2s3.6-0.7,4.9-2.2C292.9,225.4,293.5,223.5,293.5,221.1z"/>
		<path class="st1" d="M308,209.9v14.8c0,2.8,1.3,4.2,3.8,4.2c1.1,0,2.2-0.3,3.3-0.9v3.2c-1.2,0.7-2.6,1.1-4.1,1.1
			c-2,0-3.5-0.6-4.7-1.7c-1.2-1.2-1.7-3-1.7-5.4v-15.3h-3.2v-3.3h3.2v-7.7h3.4v7.7h7.2v3.3L308,209.9L308,209.9z"/>
		<path class="st1" d="M324.2,201h-3.9v-4.2h3.9V201z M323.9,232h-3.4v-25.4h3.4V232z"/>
		<path class="st1" d="M349.7,209.9c2.3,2.6,3.4,5.7,3.4,9.4s-1.1,6.8-3.4,9.4c-2.3,2.6-5.1,3.9-8.5,3.9s-6.2-1.3-8.4-3.9
			c-2.2-2.6-3.4-5.7-3.4-9.4s1.1-6.8,3.4-9.4c2.3-2.6,5.1-3.9,8.5-3.9C344.6,206,347.4,207.3,349.7,209.9z M349.6,219.4
			c0-2.8-0.8-5.1-2.4-7.1c-1.6-1.9-3.6-2.9-6-2.9s-4.4,1-6,2.9s-2.3,4.2-2.3,7s0.8,5.1,2.4,7.1c1.6,1.9,3.6,2.9,6,2.9s4.4-1,6-2.9
			C348.8,224.4,349.6,222.1,349.6,219.4z"/>
		<path class="st1" d="M361.5,217.4V232h-3.4v-25.4h3.4v4.4c1.8-3.3,4.4-5,7.8-5c2.7,0,4.8,0.9,6.4,2.8c1.6,1.9,2.3,4.3,2.3,7.4V232
			h-3.4v-14.8c0-2.4-0.5-4.3-1.6-5.6c-1.1-1.4-2.6-2-4.6-2s-3.6,0.7-4.9,2.2C362.2,213.2,361.5,215.1,361.5,217.4z"/>
		<path class="st1" d="M399.8,224.9c0,2.4-0.8,4.2-2.3,5.6c-1.5,1.4-3.5,2-5.8,2c-1.6,0-3.3-0.3-5-1s-3.2-1.6-4.4-2.7l1.7-2.7
			c2.6,2.2,5.2,3.2,7.9,3.2c1.4,0,2.5-0.4,3.4-1.1c0.9-0.7,1.3-1.7,1.3-2.9v-0.1c0-1.1-0.5-2-1.4-2.7c-1-0.6-2.4-1.2-4.2-1.8
			c-1.1-0.4-2.1-0.7-2.7-1c-0.7-0.3-1.4-0.7-2.3-1.3c-0.9-0.5-1.5-1.2-1.9-2s-0.6-1.8-0.6-2.9v-0.1c0-2.2,0.7-3.9,2.2-5.3
			c1.5-1.3,3.3-2,5.6-2c2.9,0,5.7,0.9,8.2,2.8l-1.5,2.9c-2.3-1.6-4.5-2.5-6.7-2.5c-1.3,0-2.4,0.3-3.2,1c-0.8,0.7-1.2,1.6-1.2,2.7
			v0.1c0,0.5,0.1,0.9,0.4,1.3c0.2,0.4,0.5,0.7,0.8,1s0.8,0.5,1.4,0.8s1.1,0.5,1.5,0.6s1,0.3,1.8,0.6c0.9,0.3,1.6,0.6,2.1,0.8
			c0.6,0.2,1.2,0.6,1.9,1c0.7,0.4,1.3,0.9,1.7,1.3c0.4,0.5,0.8,1.1,1.1,1.8C399.7,223.1,399.8,223.9,399.8,224.9L399.8,224.9z"/>
	</g>
	<g>
		<path class="st2" d="M36.7,106.5l-4.4,5.7c-1.2-1.4-2.8-2.4-4.7-3c-2.2-0.9-4.6-1.4-6.9-1.4c-1,0-2.1,0.2-3.1,0.4
			c-1.1,0.3-2.1,0.7-3,1.4c-0.9,0.6-1.7,1.5-2.3,2.5c-1.6,2.9-1.1,6.6,1.1,9c1.5,1.4,3.2,2.5,5.2,3.4c2,1,4.3,1.9,6.7,2.7
			c2.3,0.8,4.6,1.9,6.7,3.2c2,1.2,3.8,2.9,5.2,4.9c1.4,2.3,2.1,5,1.9,7.7c0.1,4.7-1.7,9.1-5,12.3c-3.2,3.3-8,5.1-14.1,5.1
			c-3.4,0-6.9-0.6-10.1-1.7c-3.2-1-6.2-2.9-8.4-5.6c0.4-0.4,0.9-0.9,1.4-1.6c0.5-0.7,1.1-1.3,1.6-1.9c0.5-0.6,0.9-1.1,1.2-1.5
			c0.3-0.4,0.6-0.7,0.6-0.7c0.5,0.7,1.1,1.2,1.9,1.6c1.1,0.6,2.2,1.2,3.3,1.7c1.3,0.6,2.7,1,4.1,1.4s2.7,0.6,4.2,0.6
			c1.2,0,2.5-0.2,3.8-0.5s2.5-0.9,3.6-1.7c1.1-0.7,2-1.7,2.7-2.9c0.7-1.3,1.1-2.7,1-4.3c0.1-2-0.6-4-2-5.4c-1.5-1.4-3.2-2.5-5.2-3.4
			c-2.2-1-4.5-1.9-6.8-2.7s-4.7-1.8-6.8-3.1c-2-1.3-3.8-2.9-5.1-5c-1.4-2.3-2.1-5.1-2-7.9c-0.1-2.5,0.5-5.1,1.6-7.4
			c2-3.9,5.6-6.7,9.7-7.9c1.9-0.6,4.1-0.9,6.1-0.9c2.8,0.1,5.7,0.6,8.3,1.6C31.9,102.6,34.5,104.3,36.7,106.5z"/>
		<path class="st2" d="M50.1,130.4c0-4.1,0.8-8.1,2.4-11.9c1.5-3.6,3.8-7,6.6-9.8c2.7-2.8,6.1-5.1,9.7-6.7s7.7-2.4,11.8-2.4
			c2.7,0,5.6,0.3,8.2,1.1c2.4,0.7,4.7,1.8,6.8,3.1c1.9,1.2,3.5,2.7,5.1,4.4c1.2,1.4,2.2,3,3,4.8l0.6-12.1h7.5v58.2h-8v-6
			c0-1.1,0-2.1,0.1-3s0.1-1.9,0.1-2.8c-0.7,1.7-1.8,3.3-3,4.8c-1.5,1.6-3.1,3-5.1,4.2c-2.1,1.3-4.4,2.3-6.8,3
			c-2.7,0.8-5.5,1.1-8.3,1.1c-4.2,0-8.3-0.8-12.2-2.4c-3.6-1.5-6.9-3.8-9.6-6.5c-2.7-2.7-4.9-6-6.4-9.6
			C50.9,138.5,50.1,134.5,50.1,130.4z M58.2,130c-0.1,6,2.3,11.8,6.6,16c2,2,4.6,3.8,7.2,4.9c5.8,2.3,12.2,2.3,17.9,0
			c2.7-1.1,5.2-2.7,7.2-4.9c4.3-4.3,6.7-10,6.6-16c0-3-0.6-6-1.7-8.8c-2.3-5.5-6.6-9.7-12-11.9c-8.6-3.5-18.5-1.7-25.1,4.8
			c-2,2-3.8,4.5-4.9,7.1C58.7,123.9,58.1,126.9,58.2,130z"/>
		<path class="st2" d="M152.8,162.9c-2.7-5.2-5.4-10.3-7.8-15.4c-2.4-5.2-4.9-10.3-7.2-15.4c-2.3-5.2-4.7-10.3-7.1-15.4
			c-2.4-5.2-4.9-10.3-7.5-15.4h8.6c2.9,5.9,5.4,10.8,7.5,15.3c2,4.5,3.9,8.4,5.4,11.9c1.5,3.5,2.8,6.9,4.2,9.9c1.3,3,2.6,6.2,4,9.3
			c1.3-3.1,2.6-6.2,3.9-9.3c1.2-3,2.6-6.4,4.1-9.9c1.5-3.5,3.2-7.6,5.4-11.9c2-4.5,4.6-9.6,7.5-15.3h8.6
			c-5.3,10.4-10.1,20.7-14.6,30.9C163,142.1,158.1,152.4,152.8,162.9z"/>
		<path class="st2" d="M192.1,80c0-1.6,0.6-3.1,1.8-4.2c1.1-1,2.5-1.6,4.1-1.7c3.1,0.1,5.7,2.6,5.7,5.9c0.1,1.6-0.6,3.1-1.7,4.3
			c-1,1-2.4,1.6-4,1.6s-2.9-0.6-4.1-1.6C192.6,83.1,192.1,81.5,192.1,80z M201.8,159.3h-8V101h8V159.3z"/>
		<path class="st2" d="M217.3,130.4c0-4.1,0.8-8.1,2.4-11.9c1.5-3.6,3.8-7,6.6-9.8c2.7-2.8,6.1-5.1,9.7-6.7
			c3.8-1.6,7.8-2.4,11.8-2.4c2.7,0,5.6,0.3,8.2,1.1c2.4,0.7,4.7,1.8,6.8,3.1c1.9,1.2,3.5,2.7,5.1,4.4c1.2,1.4,2.2,3,3,4.8l0.6-12.1
			h7.5v58.2h-8.1v-6c0-1.1,0-2.1,0.1-3c0.1-1,0.1-1.9,0.1-2.8c-0.7,1.7-1.8,3.3-3,4.8c-1.5,1.6-3.1,3-5.1,4.2
			c-2.1,1.3-4.4,2.3-6.8,3c-2.7,0.8-5.5,1.1-8.3,1.1c-4.2,0-8.3-0.8-12.2-2.4c-3.6-1.5-6.9-3.8-9.6-6.5c-2.7-2.7-4.9-6-6.4-9.6
			C218.1,138.5,217.3,134.5,217.3,130.4z M225.4,130c-0.1,9.1,5.4,17.3,13.7,20.8c5.8,2.3,12.2,2.3,17.9,0c2.7-1.1,5.2-2.7,7.2-4.9
			c4.3-4.3,6.7-10,6.6-16c0-3-0.6-6-1.7-8.8c-2.3-5.5-6.6-9.7-12-11.9c-5.8-2.3-12.2-2.3-17.9,0c-2.7,1.1-5.2,2.7-7.2,4.8
			c-2,2-3.8,4.5-4.9,7.1C225.9,124,225.4,126.9,225.4,130z"/>
		<path class="st2" d="M299,100.9h6.9l0.7,15c2-4.8,5.4-8.8,9.5-11.8c4.5-3,9.7-4.7,15-4.5c5.8,0,10.3,1.6,13.6,4.9
			c3.4,3.3,5.4,7.9,5.4,12.7v42.1h-8V120c-0.1-3.1-1.4-6.2-3.5-8.5s-5.4-3.6-9.6-3.9c-2.9,0-5.9,0.5-8.6,1.5c-2.5,1-4.9,2.4-6.9,4.4
			c-2,1.8-3.5,4.1-4.7,6.6c-1.1,2.6-1.7,5.5-1.7,8.3v30.9h-8L299,100.9z"/>
		<path class="st2" d="M373.7,75.6h8v26.1H399v7.3h-17.3v50.5h-8V109h-11.6v-7.3h11.6V75.6z"/>
		<path class="st3" d="M250.8,63.9c0,5.8-4.7,10.3-10.3,10.3c-5.8,0-10.3-4.7-10.3-10.3c0-5.8,4.7-10.3,10.3-10.3l0,0
			C246.1,53.6,250.8,58.2,250.8,63.9L250.8,63.9z"/>
		<path class="st3" d="M302,21.6c0,10.2-8.3,18.5-18.5,18.5S265,31.8,265,21.6s8.3-18.5,18.5-18.5l0,0C293.9,3.1,302,11.3,302,21.6
			L302,21.6z"/>
	</g>
</g>
</svg>
